<?xml version="1.0" encoding="UTF-8" standalone="no"?>
<!-- Created with Inkscape (http://www.inkscape.org/) -->

<svg
   width="32mm"
   height="32mm"
   viewBox="0 0 32 32"
   version="1.1"
   id="svg1"
   xml:space="preserve"
   xmlns:xlink="http://www.w3.org/1999/xlink"
   xmlns="http://www.w3.org/2000/svg"
   xmlns:svg="http://www.w3.org/2000/svg"><defs
     id="defs1"><linearGradient
       id="linearGradient24"><stop
         style="stop-color:#f9e4a3;stop-opacity:1;"
         offset="0"
         id="stop24" /><stop
         style="stop-color:#e9e4d3;stop-opacity:1;"
         offset="0.21608873"
         id="stop26" /><stop
         style="stop-color:#f9e4a3;stop-opacity:1;"
         offset="0.38157895"
         id="stop27" /><stop
         style="stop-color:#f9e4a3;stop-opacity:1;"
         offset="0.48854685"
         id="stop31" /><stop
         style="stop-color:#ffffff;stop-opacity:1;"
         offset="0.56883341"
         id="stop30" /><stop
         style="stop-color:#f9e4a3;stop-opacity:1;"
         offset="0.61368102"
         id="stop28" /><stop
         style="stop-color:#dcbd5c;stop-opacity:1;"
         offset="0.79520744"
         id="stop29" /><stop
         style="stop-color:#f9e4a3;stop-opacity:1;"
         offset="1"
         id="stop25" /></linearGradient><linearGradient
       xlink:href="#linearGradient24"
       id="linearGradient35"
       gradientUnits="userSpaceOnUse"
       x1="-13.801792"
       y1="148.06564"
       x2="112.66289"
       y2="148.06564"
       gradientTransform="matrix(0.24832849,0,0,0.24832849,66.598694,-37.577777)" /></defs><g
     id="layer1"
     transform="translate(-62.873718,16.808868)"><path
       id="path1"
       style="fill:url(#linearGradient35);fill-opacity:1;stroke:#24211e;stroke-width:0.595242;stroke-linecap:round;stroke-linejoin:round;stroke-dasharray:none;stroke-opacity:1;paint-order:fill markers stroke"
       d="m 78.873848,-15.050817 c -0.467765,0.01191 -0.917911,0.180789 -1.278021,0.479559 -0.06048,0.03707 -0.124132,0.07011 -0.178751,0.114084 -4.066444,3.274203 -6.817034,6.4597045 -9.20711,10.4354492 -2.322813,3.86388133 -3.397951,8.2573788 -4.789175,12.4954846 -0.09774,0.2976687 -0.244728,0.5929826 -0.249204,0.9062466 -0.0036,0.2885353 0.03798,0.6060136 0.205573,0.8409306 0.409277,0.573708 0.97503,0.905487 1.778488,1.14314 4.196314,1.438132 8.97543,2.069021 13.548163,2.069021 4.572721,0 9.324277,-0.665005 13.888224,-2.069021 1.306188,-0.430932 1.984025,-0.888313 1.984061,-1.9840706 -4.88e-4,-0.2674077 -0.05488,-0.5319667 -0.160144,-0.7777897 -7.5e-4,-0.00226 -7.5e-4,-0.00429 -0.0012,-0.00643 -1.360819,-4.6540563 -3.133545,-9.42107405 -5.177868,-13.0639753 -2.044336,-3.6429056 -6.012803,-8.0272284 -8.910668,-9.9934914 -0.01917,-0.01304 -0.04226,-0.02218 -0.06214,-0.03465 -0.378729,-0.350538 -0.874029,-0.548117 -1.390045,-0.554501 z" /><path
       id="path23"
       style="fill:#24211e;fill-opacity:1;stroke:none;stroke-width:0.119048;stroke-linecap:round;stroke-linejoin:round;stroke-dasharray:none;stroke-opacity:1;paint-order:fill markers stroke"
       d="m 79.234957,6.6543345 v 1.6685124 l 0.08524,0.090084 h 0.711445 V 9.229734 h -0.856708 v 0.5160035 h 1.443045 V 7.8618938 H 79.89139 V 7.2505445 l 0.721577,-0.020012 V 6.6543429 Z m -3.653227,0.01 0.0012,2.5384409 h -0.630719 v -2.533179 l -0.582742,0.00357 0.0012,3.0822957 h 1.785547 V 6.6695775 Z m 1.192163,0.022964 v 3.1178377 h 0.62354 V 8.2249165 l 0.11012,-7.452e-4 0.676409,1.573807 h 0.453515 V 6.6873228 h -0.61648 v 1.0983527 h -0.12743 L 77.376278,6.6873228 Z m -4.538423,0.00202 V 9.720665 h 0.505991 V 9.2195518 h 0.18043 l 0.460955,0.5963361 h 0.345717 l 0.135251,-0.1152388 -0.470956,-0.6063458 0.0048,-0.2304765 h 0.24549 L 73.773361,8.7435831 V 6.6893205 Z m 11.13317,0.01 -0.02,3.0713861 h 0.666409 V 6.6993229 Z m -0.826684,0.025024 -0.521147,1.7437129 -0.415907,-1.7385807 h -0.641255 l 0.771506,3.0267298 h 0.600575 l 0.812434,-3.031862 z m 1.974049,0.010119 v 3.0663802 h 1.608332 l 0.160406,-0.130375 V 7.9018584 H 85.432904 V 8.417863 L 85.633357,8.52809 V 9.2446686 H 85.202426 V 7.2554683 h 0.340717 l 0.155274,0.2555006 0.486099,-0.075072 0.0095,-0.7014368 z m -14.516122,0.0025 0.0425,2.947677 h 1.516439 V 8.3241184 L 71.360428,8.1257242 71.530465,7.8564938 v -1.119548 z m 16.772125,0.021179 v 3.018644 c 0.0048,0.055119 0.630599,0.042476 0.630599,0.042476 V 9.0043884 h 0.368551 v 0.8148769 h 0.559765 V 6.7581448 Z m -16.21005,0.5074081 h 0.410896 v 0.581192 H 70.58197 Z m 2.239694,0 h 0.390753 v 1.1173456 h -0.390753 z m 14.585301,0.055179 h 0.370728 V 8.3929057 H 87.386953 Z M 70.561958,8.5131482 h 0.410896 V 9.254752 H 70.58197 Z" /><path
       id="path24"
       style="fill:#24211e;fill-opacity:1;stroke-width:1.98662;stroke-linecap:round;stroke-linejoin:round;paint-order:fill markers stroke"
       d="m 79.197231,-9.1494297 c -4.534935,0 -3.885372,4.8158671 -3.885372,4.8158671 0,0 -0.51142,-0.014357 -0.521134,0.2504969 -0.01238,0.3358094 0.55617,0.2454897 0.55617,0.2454897 v 9.0889094 h 5.090618 c 0.05012,0 0,-1.1022038 0,-1.1022038 h -2.605434 l 0.01536,-0.437853 h 3.932586 V 2.1879033 h -1.296747 c 0,0 -0.478277,-6.91e-5 -0.478277,-0.620078 0,-0.62001014 0.552706,-0.5627157 0.552706,-0.5627157 H 81.74012 V 0.4289212 c 0,0 1.2e-5,-0.005119 -0.18787,-0.007619 -0.187894,-0.0025 -0.511004,-0.13779974 -0.511004,-0.55617041 0,-0.41837186 0.355693,-0.62623755 0.49098,-0.62623755 0.135286,0 0.240549,-0.007619 0.243049,0.22534318 0.0024,0.23298372 -0.117858,0.1954418 -0.117858,0.1954418 0,0 -0.207894,-0.005 -0.207894,0.18042859 -0.0048,0.16283562 0.260502,0.14526645 0.260502,0.14526645 H 83.16526 V -3.778422 c 0,0 0.485337,0.063774 0.485337,-0.262172 0,-0.3259534 -0.499587,-0.3330082 -0.499587,-0.3330082 0,0 0.566861,-4.76165 -3.953883,-4.7758299 z m -0.05893,0.2827043 c 0.289907,-0.00179 1.217794,0.1786226 1.228091,0.3124771 0.01072,0.1381724 -0.159382,0.1275592 -0.159382,0.1275592 0,0 -0.531408,-0.014179 -0.676671,0.035417 -0.145263,0.049607 -0.287073,0.1983942 -0.287073,0.1983942 l -0.138073,-0.00357 -0.421681,-0.4002526 h -0.177096 v -0.1700393 c 0,0 0.35074,-0.085143 0.605837,-0.099322 0.0083,-4.964e-4 0.01667,-4.964e-4 0.02607,-7.452e-4 z m -1.157127,0.4156528 c 0.01071,7.452e-4 0.02238,0.00226 0.035,0.00512 0.202478,0.044988 0.04702,0.241254 0.232907,0.3333963 0.185834,0.092131 0.248037,-0.1503606 0.406419,-0.016417 0.15837,0.133933 -0.07036,0.2355171 0.05131,0.403461 0.121715,0.1679393 0.289395,-0.01781 0.367395,0.1743965 0.07798,0.1921941 -0.171787,0.1757297 -0.14206,0.3810025 0.02976,0.2052764 0.264597,0.1187627 0.244335,0.325182 -0.02024,0.2064252 -0.233788,0.075834 -0.302848,0.2714125 -0.06905,0.1955763 0.179049,0.2280432 0.06524,0.4014087 -0.113929,0.1733654 -0.24218,-0.0415 -0.394229,0.099584 -0.152037,0.1410807 0.0525,0.285159 -0.128834,0.3857514 -0.181394,0.1005959 -0.195192,-0.1493498 -0.395384,-0.095084 -0.200192,0.054262 -0.08595,0.2770328 -0.293347,0.2818055 -0.20737,0.00476 -0.103453,-0.2230861 -0.305942,-0.2680756 -0.202478,-0.044988 -0.204799,0.2053228 -0.390622,0.1131793 -0.185823,-0.092132 0.01202,-0.2454029 -0.146299,-0.3793359 -0.15837,-0.1339319 -0.276859,0.086584 -0.398586,-0.081358 -0.121715,-0.1679452 0.124846,-0.2117824 0.0469,-0.4039765 -0.07798,-0.192193 -0.285442,-0.052024 -0.315169,-0.2572946 -0.02976,-0.2052764 0.20893,-0.1295366 0.229193,-0.3359618 0.02024,-0.2064252 -0.228454,-0.1784964 -0.159383,-0.3740739 0.06905,-0.1955787 0.245062,-0.017702 0.358931,-0.1910799 0.113811,-0.1733654 -0.119322,-0.2643053 0.03274,-0.4053861 0.152037,-0.1410747 0.225275,0.098286 0.406669,-0.00226 0.181382,-0.1005959 0.01714,-0.2895257 0.217383,-0.343788 0.200191,-0.054262 0.153751,0.1917489 0.361109,0.1869715 0.194406,-0.00452 0.155966,-0.2188229 0.317229,-0.2085312 z m 2.081978,0.2268825 c 0.01072,4.964e-4 0.02333,0.00286 0.03762,0.00702 0.114524,0.033524 0.05381,0.1075246 0.146798,0.1823548 0.0931,0.074834 0.152239,-4.964e-4 0.209561,0.1042031 0.05726,0.1047388 -0.03798,0.1140841 -0.02512,0.2327861 0.01286,0.1187032 0.108096,0.1072864 0.07452,0.2218765 -0.03357,0.114596 -0.107501,0.053762 -0.182346,0.1468069 -0.07488,0.093036 3.93e-4,0.1523689 -0.104287,0.2096884 -0.104762,0.057322 -0.114048,-0.038167 -0.232787,-0.025286 -0.118691,0.012857 -0.107263,0.108084 -0.221882,0.07456 -0.114525,-0.033536 -0.05381,-0.1075245 -0.146799,-0.1823524 -0.09298,-0.074834 -0.152239,4.964e-4 -0.209561,-0.1043341 -0.05738,-0.1047388 0.03798,-0.1139531 0.02512,-0.2326563 -0.01286,-0.1187032 -0.108096,-0.1074174 -0.07452,-0.2220062 0.03357,-0.114596 0.10762,-0.053774 0.182477,-0.146807 0.07488,-0.093036 -5.47e-4,-0.1522367 0.104168,-0.2095585 0.104762,-0.057322 0.114048,0.038012 0.232787,0.025155 0.10381,-0.01131 0.108096,-0.08556 0.184275,-0.081489 z m 0.965792,0.2426671 c 0.01643,-4.964e-4 0.02738,4.964e-4 0.02738,4.964e-4 h 0.536158 l 0.483408,0.4835378 v 0.2254718 h -1.089757 c -0.105239,0 -0.115239,-0.152838 -0.115239,-0.152838 v -0.3983288 c 0,0 -0.0024,0.00369 0.0024,-0.058905 0.0071,-0.084608 0.106191,-0.097941 0.155525,-0.099322 z m -3.324962,0.1252461 c -0.166513,0 -0.354312,0.076096 -0.354312,0.076096 0,0 -0.01464,0.074893 0.03964,0.1479617 0.05429,0.073072 0.177346,0.1443665 0.304014,0.1443665 0.126655,0 0.267406,-0.08987 0.326978,-0.1602785 0.05952,-0.070417 0.03786,-0.1213984 0.03786,-0.1213984 0,0 -0.187668,-0.086751 -0.354193,-0.086751 z m 2.230455,0.075584 a 0.15031298,0.15031298 0 0 0 -0.150394,0.150401 0.15031298,0.15031298 0 0 0 0.150394,0.1502713 0.15031298,0.15031298 0 0 0 0.150275,-0.1502713 0.15031298,0.15031298 0 0 0 -0.150275,-0.150401 z m -2.886841,0.1923632 c -0.0012,-1.19e-5 -0.0024,1.286e-4 -0.0024,1.286e-4 0,0 -0.140024,0.1522677 -0.190953,0.310808 -0.05095,0.158538 -0.03583,0.3606013 -0.03583,0.3606013 0,0 0.06667,0.03675 0.152834,0.0075 0.08619,-0.02931 0.19174,-0.1246461 0.230478,-0.245235 0.03869,-0.1205924 -0.0036,-0.2822281 -0.05262,-0.3604714 -0.04274,-0.068477 -0.09024,-0.073179 -0.101549,-0.073274 z m 1.327545,0.044405 c 0,0 -0.07583,0.00798 -0.129739,0.081358 -0.05393,0.073334 -0.08583,0.2120728 -0.04869,0.3331379 0.03726,0.1210675 0.164656,0.2291397 0.249478,0.2653816 0.08476,0.036203 0.127037,4.964e-4 0.127037,4.964e-4 0,0 0.02774,-0.204899 -0.02119,-0.3640644 -0.04893,-0.1591617 -0.176954,-0.3163259 -0.176954,-0.3163259 z m -0.690659,0.3820311 a 0.1665168,0.1665168 0 0 0 -0.166573,0.166569 0.1665168,0.1665168 0 0 0 0.166573,0.1664392 0.1665168,0.1665168 0 0 0 0.166441,-0.1664392 0.1665168,0.1665168 0 0 0 -0.166441,-0.166569 z m 3.925407,0.2053228 h 0.766624 c 0,0 0.19037,0.2731019 0.24549,0.5361513 0.05512,0.263047 0.05012,0.4059003 0.05012,0.4059003 h -0.30568 c 0,0 -0.09762,-0.2355099 -0.328134,-0.4935474 -0.230477,-0.2580362 -0.433491,-0.2956651 -0.433491,-0.2956651 z m -1.565082,0.043762 c 0.19593,-0.015345 0.152846,0.24596 0.389348,0.2480553 0.252275,0.00226 0.191632,-0.2961508 0.43605,-0.2336849 0.244419,0.062477 0.04798,0.2950996 0.270383,0.414242 0.222371,0.1191627 0.307181,-0.1731321 0.494575,-0.00429 0.187394,0.1689035 -0.09464,0.2835519 0.0469,0.4923914 0.141525,0.208824 0.352598,-0.010476 0.440027,0.2261134 0.0875,0.2366421 -0.21549,0.2070514 -0.187228,0.4577437 0.02822,0.2506803 0.316931,0.1544534 0.284371,0.404617 -0.0325,0.250166 -0.286954,0.083143 -0.378431,0.3182498 -0.05357,0.1377259 0.02631,0.2117347 0.07345,0.29079 h -1.289306 c -0.0024,-0.005 -0.0036,-0.00988 -0.0071,-0.015024 -0.05321,-0.097048 -0.189763,-0.2032835 -0.342372,-0.224317 -0.09536,-0.013131 -0.20331,0.014976 -0.29118,0.056334 -0.05274,0.024786 -0.09833,0.054393 -0.129608,0.082512 -0.04322,0.038798 -0.05905,0.074691 -0.06452,0.1004769 h -0.891233 c 0.04345,-0.089012 0.150061,-0.1615428 0.09333,-0.3151712 -0.0875,-0.2366421 -0.344788,-0.073977 -0.37305,-0.32467 -0.02821,-0.2506744 0.258752,-0.1495772 0.2913,-0.3997385 0.03262,-0.2501696 -0.270871,-0.2258433 -0.179394,-0.4609532 0.09143,-0.2351349 0.298668,-0.012167 0.443753,-0.2185407 0.145084,-0.2063824 -0.134954,-0.3259498 0.05536,-0.4916224 0.190252,-0.1656499 0.270062,0.1282747 0.494444,0.012964 0.210347,-0.1081079 0.05464,-0.3222927 0.236502,-0.3966598 0.01214,-0.005 0.02571,-0.00929 0.04107,-0.012964 0.01536,-0.00369 0.0294,-0.00595 0.0425,-0.0069 z m -2.911877,0.2538315 c -0.04786,-4.964e-4 -0.09226,0.00488 -0.125501,0.0145 -0.08869,0.025488 -0.09881,0.079822 -0.09881,0.079822 0,0 0.108096,0.176519 0.246526,0.2689744 0.138489,0.092453 0.336859,0.1333306 0.336859,0.1333306 0,0 0.05381,-0.054107 0.04929,-0.1450093 -0.0048,-0.090893 -0.06738,-0.2185395 -0.172727,-0.2888662 -0.06583,-0.043953 -0.155775,-0.061798 -0.235609,-0.06275 z m 1.087698,0.029381 c -0.0531,-1.071e-4 -0.10881,0.0094 -0.159513,0.031703 -0.115953,0.050965 -0.208751,0.1899144 -0.234966,0.2783412 -0.02619,0.088429 0.01429,0.1262735 0.01429,0.1262735 0,0 0.20687,0.00393 0.359312,-0.063012 0.152453,-0.066988 0.293621,-0.2122538 0.293621,-0.2122538 v -1.274e-4 c 0,0 -0.01667,-0.074405 -0.09571,-0.1194734 -0.04452,-0.025345 -0.108691,-0.04131 -0.176965,-0.041453 z M 75.86185,-6.386416 v 1.297e-4 c 0.05548,-0.0025 0.09179,0.038655 0.249085,0.3792085 0.167847,0.3632548 0.901935,0.7491445 0.962066,0.7528945 0.06012,0.00369 0.167847,0.063774 0.167847,0.1790179 0,0.1152388 -0.165406,0.090215 -0.165406,0.090215 h -1.217449 c 0,0 -0.04274,8.45e-5 -0.130382,-0.0075 -0.08762,-0.0075 -0.06012,-0.3106342 -0.045,-0.6914262 0.015,-0.3807942 0.102739,-0.7040738 0.167846,-0.7015654 0.0036,-4.965e-4 0.0071,-7.453e-4 0.0119,-9.941e-4 z m 4.545483,0.1983953 c 0,0 -0.251406,0.00476 -0.433622,0.093167 -0.182215,0.088405 -0.347383,0.2714126 -0.347383,0.2714126 0,0 0.02393,0.08962 0.122036,0.1407747 0.09821,0.051167 0.270645,0.063905 0.409241,-0.00333 0.138596,-0.06725 0.244895,-0.2403766 0.272693,-0.34905 0.02774,-0.1086793 -0.02298,-0.1529653 -0.02298,-0.1529653 z m 0.466599,0.078667 c 0,0 -0.07869,0.049108 -0.09869,0.157969 -0.02,0.1088578 0.01857,0.277659 0.123585,0.3903728 0.105,0.1127151 0.30193,0.163206 0.413979,0.1578429 0.112024,-0.00548 0.139239,-0.066858 0.139239,-0.066858 0,0 -0.07845,-0.2389744 -0.21649,-0.3871647 -0.13806,-0.1481843 -0.361621,-0.2521624 -0.361621,-0.2521624 z m -1.427772,0.647539 c -0.0256,-7.452e-4 -0.04238,0.00583 -0.04845,0.00869 v 1.285e-4 c -0.0012,7.453e-4 -0.0024,0.00119 -0.0024,0.00119 0,0 -0.07238,0.2409255 -0.04393,0.4414458 0.02845,0.2005204 0.152192,0.4136016 0.152192,0.4136016 0,0 0.0925,0.00476 0.171192,-0.073012 0.07869,-0.07781 0.143679,-0.2381075 0.122036,-0.3906288 -0.02167,-0.1525308 -0.153977,-0.3068092 -0.248954,-0.3665024 -0.04155,-0.026131 -0.07595,-0.034262 -0.101548,-0.035036 z m 0.951292,0.1171675 a 0.20253039,0.20253039 0 0 0 -0.07643,0.020012 0.20253039,0.20253039 0 0 0 -0.09381,0.2706435 0.20253039,0.20253039 0 0 0 0.270645,0.093679 0.20253039,0.20253039 0 0 0 0.09381,-0.2703875 0.20253039,0.20253039 0 0 0 -0.194156,-0.1139532 z m 1.008519,0.2692304 c -0.06214,-0.00417 -0.140775,0.012536 -0.215585,0.048631 -0.05822,0.028084 -0.114048,0.068012 -0.157715,0.1193449 -0.09988,0.1173341 -0.127608,0.3185807 -0.109287,0.4292553 0.01833,0.1106436 0.0825,0.1306354 0.0825,0.1306354 0,0 0.228573,-0.1055007 0.359824,-0.2597339 0.131262,-0.1542415 0.208537,-0.388061 0.208537,-0.388061 v -1.285e-4 c 0,0 -0.05774,-0.072596 -0.168239,-0.079941 z m -5.557978,0.2526767 h 2.47504 v 0.5041962 l -2.510207,0.005 c 0,0 -0.225466,-0.015 -0.225466,-0.2605042 0,-0.24551 0.260633,-0.2486993 0.260633,-0.2486993 z m 2.892234,1.2746752 h 3.404785 V -3.12651 l -0.364967,0.00702 -0.148858,0.3082426 h 0.287073 v 0.4357993 l -2.558077,0.010595 0.0071,-0.4180909 1.743071,-0.00357 0.131025,-0.3294153 -2.809471,-0.00357 c 0,0 0.0071,-0.035381 0.01071,-0.2408703 0.0036,-0.2054799 0.297586,-0.1877417 0.297586,-0.1877417 z m 1.823274,4.956383 c -0.02952,2.476e-4 -0.147442,0.011429 -0.147442,0.1649023 0,0.175375 0.118692,0.1983918 0.118692,0.1983918 l 1.19921,0.00179 V 1.4085637 h -1.163793 c 0,0 -0.0024,-1.785e-4 -0.0071,-1.297e-4 z" /></g></svg>
